<?xml version="1.0" encoding="UTF-8"?>
<!DOCTYPE svg PUBLIC "-//W3C//DTD SVG 1.1//EN" "http://www.w3.org/Graphics/SVG/1.1/DTD/svg11.dtd">
<!-- Creator: CorelDRAW 2017 -->
<svg xmlns="http://www.w3.org/2000/svg" xml:space="preserve" width="236px" height="50px" version="1.1" style="shape-rendering:geometricPrecision; text-rendering:geometricPrecision; image-rendering:optimizeQuality; fill-rule:evenodd; clip-rule:evenodd"
viewBox="0 0 236 49.56"
 xmlns:xlink="http://www.w3.org/1999/xlink">
 <defs>
  <style type="text/css">
   <![CDATA[
    .fil0 {fill:yellow}
    .fil1 {fill:#FFFF99;fill-rule:nonzero}
   ]]>
  </style>
 </defs>
 <g id="Слой_x0020_1">
  <metadata id="CorelCorpID_0Corel-Layer"/>
  <path class="fil0" d="M69.76 40.86c0.92,-2.37 1.44,-6.05 1.66,-9.69 0.2,-3.1 -0.8,-6.68 0.84,-7.99 4.04,-3.23 3.63,-8.2 4.39,-9.01 1.64,-1.72 1.13,-2.34 1.42,-3.82 -1.99,0.4 -4.85,0.21 -5.92,1.71 -0.6,0.83 -0.96,1.91 -1.56,2.88 -0.85,1.34 -4.14,-1.28 -5.66,1.77 -0.72,1.44 -0.31,2.72 1.44,3.13 -2.05,2.82 3.21,3.01 1.5,4.09 -7.54,4.73 -10.63,-4.28 -9.54,-4.75 1.26,-0.49 2.15,-1.64 2.15,-2.99 0,-1.78 -1.56,-3.22 -3.48,-3.22 -1.92,0 -3.48,1.44 -3.48,3.22 0,1.4 0.96,2.58 2.3,3.03 0.26,2.98 -2.7,5.38 -7.95,3.72 -4.35,-1.38 1.1,-3.69 2.01,-4.69 2.15,-2.34 0.52,-4.47 -1.53,-5.07 -2.05,-0.61 -2.93,-3.73 -1.26,-3.06 1.68,0.68 0.3,-2.08 -2.17,-2.69 -2.47,-0.6 -2.99,-1.49 -3.44,-2.36 -0.45,0.87 -0.97,1.76 -3.45,2.36 -2.46,0.61 -3.85,3.37 -2.17,2.69 1.67,-0.67 0.79,2.45 -1.25,3.06 -2.05,0.6 -3.68,2.73 -1.54,5.07 0.91,1 6.36,3.31 2.01,4.69 -5.25,1.66 -8.21,-0.74 -7.94,-3.72 1.34,-0.45 2.29,-1.63 2.29,-3.03 0,-1.78 -1.56,-3.22 -3.48,-3.22 -1.92,0 -3.48,1.44 -3.48,3.22 0,1.35 0.89,2.5 2.16,2.99 1.08,0.47 -2.01,9.48 -9.54,4.75 -1.72,-1.08 3.55,-1.27 1.49,-4.09 1.75,-0.41 2.16,-1.69 1.44,-3.13 -1.52,-3.05 -4.81,-0.43 -5.66,-1.77 -0.6,-0.97 -0.96,-2.05 -1.56,-2.88 -1.07,-1.5 -3.93,-1.31 -5.92,-1.71 0.29,1.48 -0.22,2.1 1.42,3.82 0.76,0.81 0.36,5.78 4.39,9.01 1.64,1.31 0.65,4.89 0.84,7.99 0.23,3.64 0.74,7.32 1.66,9.69 7.67,-1.77 17.53,-2.83 28.29,-2.83 10.76,0 20.62,1.06 28.28,2.83z"/>
  <path class="fil1" d="M94.8 11.87c1.77,1.13 2.36,1.9 2.82,4 1.85,-1.32 3.7,-2.64 5.55,-3.97 1.22,0.83 2.43,1.66 3.64,2.49 0.38,-0.48 1.21,-0.99 1.78,-1.04 0.12,1.35 -0.63,0.81 -1.24,3.06 0,4.94 0,9.88 0,14.81 0.52,0.92 0.62,1.77 1.61,0.78 0.18,0.16 0.36,0.31 0.54,0.47 -1.06,1 -2.13,2 -3.2,3 -0.83,0 -1.63,-0.85 -2.07,-1.5 -0.39,-0.6 -0.75,-1.38 -0.75,-2.38l0 -15.45 -2.39 -1.68 -0.61 0.44c0,2.41 0,4.82 0,7.24 0.67,0 1.35,0 2.02,0l-2.15 2.89c0,1.89 0,3.77 0,5.66 0.47,-0.1 0.51,-0.07 0.87,-0.37 0.19,0.12 0.38,0.24 0.57,0.37 -1.83,1.59 -3.66,3.18 -5.48,4.78 -1.1,-1.32 -2.19,-2.34 -3.57,-3.34 0.81,-0.54 1.07,-1.12 1.01,-2.45 -0.06,-1.61 -0.04,-3.75 -0.04,-4.65l-3.87 0c0,2.19 0.09,4.38 0,6.56 -0.05,1.29 -0.44,2.4 -0.92,3.35 -0.46,0.91 -1.76,1.98 -2.82,2.07 -3.15,0.25 -5.6,-1.63 -7.1,1.29 -0.9,-2.83 1.76,-4.38 4.22,-4.57 1.68,-0.13 2.85,-0.85 2.85,-2.78 0,-3.21 -2.81,-5.9 -5.88,-4.25 -0.36,-1.93 1.95,-3.39 3.8,-3.39 0.2,-4.07 1.71,-6.02 3.69,-7.4 2.25,-1.56 4.95,-3.01 7.12,-4.04zm-4.97 3.72c-0.63,0.41 -1.92,1.88 -1.94,2.64 -0.12,4.22 0.02,10.67 0,12.49 -0.03,1.81 -1.7,2.96 -2.16,3.17 1.99,0.65 3.27,-0.56 3.27,-2.61 0.01,-4.37 0.01,-8.75 0,-13.12 0,-0.61 0.42,-2.01 0.83,-2.57zm7.79 9.44c0,1.93 0,3.86 0,5.79 0,0.77 0.18,1.44 0.71,2.02 0.52,-0.09 0.87,-0.34 1.24,-0.71l0 -7.1 -1.95 0zm-7.71 -7.84l0 7.03 1.51 -2.22 2.29 0c0,-1.93 0,-3.86 0,-5.79 -1.61,-3.11 -3.06,-1.03 -3.8,0.98zm9.66 -1.38c-0.67,0.48 -1.35,0.96 -2.02,1.44 0,1.63 0,3.26 0,4.89 0.67,0 1.35,0 2.02,0 0,-2.11 0,-4.22 0,-6.33zm15.69 2.62c0.64,0.21 1.79,0.63 2.46,3.91 1.43,-1.3 3.02,-2.74 4.46,-4.04 5.96,8.8 -1.95,13.63 -8.23,17.03 -3.2,2.73 0.7,4.48 2.93,3.74 0.47,-0.16 0.84,-0.86 1.18,-1.16 1.11,-0.99 2,0.97 0.06,1.63 -2.25,0.77 -7.16,0.74 -6.03,-2.9 0.47,-1.45 2.06,-2.42 2.19,-4 0,-3.37 0,-6.75 0,-10.12 0,-1.78 -1.16,-1.01 -1.92,-0.25 -0.19,-0.19 -0.38,-0.38 -0.57,-0.57 1.16,-1.09 2.31,-2.18 3.47,-3.27zm2.39 5.15c0,2.85 0,5.7 0,8.55 3.04,-2.13 5.12,-7.49 2.14,-10.47 -0.38,0.34 -1.85,1.66 -2.14,1.92zm30.94 -11.68c2.22,0.83 4.44,1.66 6.66,2.49 0.26,-0.48 0.52,-0.96 0.78,-1.45 0.23,0.12 0.47,0.23 0.7,0.34 -1.08,2 -2.17,4 -3.26,5.99 13.21,0.98 13.21,11.11 0.9,16.26 -0.99,-0.41 -3.19,-1.34 -4.1,-1.71 -13.92,7.47 -14.84,-7.54 -3.26,-4.75 0.17,-0.35 0.38,-0.72 0.58,-1.04 -5.66,1.13 -11.45,-4.92 -5.06,-7.98 0.58,-3.79 3.42,-5.71 6.06,-8.15zm0.57 21.61c-13.4,-5.27 -9.81,5.88 0,0zm2.29 -10.26c-0.33,0.5 -0.65,1.01 -0.98,1.51 2.78,-0.11 7.27,-1.04 8.64,2.19 1.07,2.51 -2.37,4.05 -4.26,4.98 0.89,0.37 1.77,0.74 2.66,1.11 6.24,-4.07 3.45,-11.41 -6.06,-9.79zm3.46 4.52c-2.2,0.13 -4.12,0.26 -6.32,0.39 -0.2,0.43 -0.41,0.85 -0.61,1.28 0.74,0.26 5.1,1.82 5.84,2.08 2.07,-1.08 3.11,-3.69 1.09,-3.75zm-12.08 -6.91c-1.84,1.4 -1.07,4.93 6.73,3.97 0.26,-0.55 0.52,-1.1 0.78,-1.65 -3.15,0.94 -6.79,0.14 -7.51,-2.32zm2.98 -4.7c-2.61,3.64 2.76,4.19 6.59,3.25 0.39,-0.68 0.74,-1.21 1.14,-1.89 -0.51,0 -5.76,-4.11 -7.73,-1.36zm25.69 2.07c-0.76,0.87 -2.57,2.63 -3.93,2.93 0.05,7.23 0.43,10.65 -0.9,11.82 1.36,0.26 2.93,1.03 4.71,2.28 1.41,-1.06 2.83,-2.13 4.24,-3.19 -0.16,-0.16 -0.28,-0.52 -0.47,-0.71 -0.56,0.43 -1.12,0.85 -1.68,1.28 -0.73,-0.36 -2.2,-1.12 -2.7,-1.62 0,-3.2 0,-6.39 0,-9.59 0.97,0.78 1.97,1.35 3,1.68 0.5,-0.75 1.01,-1.5 1.51,-2.25 -0.34,-0.25 -3.26,-1.87 -3.78,-2.63zm12.43 -5.62c-2.44,1.35 -1.86,5.01 -1.81,9.64 1.52,-1.28 3.05,-2.61 4.58,-3.89 3.59,3.43 1.93,3.43 2.4,12.38 0.26,5.01 -3.99,7.46 -8.6,8.43 -0.18,-0.07 -0.52,-0.2 -0.6,-0.2 0.06,-0.17 0.13,-0.34 0.2,-0.51 2.62,-0.74 5.78,-2.72 5.79,-5.75 0.01,-3.43 0,-6.92 0,-10.37 -0.43,-0.4 -0.86,-0.79 -1.28,-1.18 -0.85,0.69 -1.71,1.39 -2.56,2.09 0,2.82 0,5.65 0,8.48 0.35,0.41 0.7,0.83 1.04,1.25 -0.88,0.76 -1.77,1.52 -2.66,2.28 -0.87,-0.76 -1.75,-1.52 -2.62,-2.28 0.35,-0.42 0.69,-0.84 1.04,-1.25 0,-3.62 0,-7.25 0,-10.87 -0.58,-0.03 -1.17,-0.05 -1.75,-0.07 0,-0.6 0,-1.19 0,-1.79 0.63,0 1.26,0 1.89,0 0,-2.2 0.38,-4.04 -1.62,-5.65 1.16,-0.22 2.03,0.79 2.66,1.41 1.08,-1.37 2.26,-2.15 3.9,-2.15zm13.61 5.75c1.65,1.42 3.44,2.04 5.48,2.6 0,3.87 0,7.74 0,11.61 -1.69,0.9 -3.39,1.8 -5.08,2.69 -2.16,-1.11 -3.7,-2.06 -6.06,-2.69 1.44,-1.45 0.91,-3.37 0.91,-11.41 1.48,-0.27 3.87,-1.61 4.75,-2.8zm-1.49 3c0,3.22 0,6.44 0,9.66 1.24,0.54 2.47,1.08 3.71,1.62 0,-3.23 0,-6.47 0,-9.7 -1.24,-0.52 -2.47,-1.05 -3.71,-1.58zm15.22 -3c1.66,1.42 3.45,2.04 5.49,2.6 0,3.87 0,7.74 0,11.61 -1.7,0.9 -3.39,1.8 -5.09,2.69 -2.16,-1.11 -3.65,-2.24 -6.05,-2.69 1.45,-1.02 0.82,-6.43 0.9,-11.41 1.41,-0.09 4.26,-1.81 4.75,-2.8zm-1.48 3c0,3.22 0,6.44 0,9.66 1.23,0.54 2.47,1.08 3.7,1.62 0,-3.23 0,-6.47 0,-9.7 -1.23,-0.52 -2.47,-1.05 -3.7,-1.58zm16.17 -8.75c-2.67,0.91 -1.75,9.01 -1.8,18.48 0.61,0.46 1.22,0.92 1.82,1.38 0.2,-0.16 0.41,-0.31 0.61,-0.47 0.17,0.19 0.33,0.38 0.5,0.57 -1.06,0.94 -2.13,1.89 -3.19,2.83 -1.26,-1.25 -2.58,-2.22 -4.25,-2.86 0.88,-0.56 1.32,-1.33 1.32,-2.29 -0.05,-13.48 0.65,-15.79 -1.45,-17.04 0.91,-0.3 2.74,1.45 2.76,1.45 0,0.04 1.41,-2.14 3.68,-2.05z"/>
 </g>
</svg>
